<svg width="165" height="22" viewBox="0 0 165 22" fill="none" xmlns="http://www.w3.org/2000/svg">
<g clip-path="url(#clip0_14952_141)">
<path d="M0 20.2236H3.81665V15.7443C1.71056 15.7443 0 17.4497 0 19.561V20.2236Z" fill="black"/>
<path d="M13.5663 0H3.81665C1.71056 0 0 1.71056 0 3.81665H3.81665H13.5663C15.7084 3.78583 17.5884 4.88511 17.5884 6.73949C17.5884 9.02537 16.3453 9.80617 14.2341 9.80617H3.81665C1.70542 9.80617 0 11.5167 0 13.6228H3.81665H14.229C20.162 13.6228 21.5489 10.0938 21.5489 6.73949C21.5489 2.45539 18.3076 0 13.5663 0Z" fill="black"/>
</g>
<g clip-path="url(#clip1_14952_141)">
<path d="M41.0224 3.4361C43.285 3.4361 44.8278 4.60961 44.8278 6.64995C44.8278 8.24906 44.1643 9.93266 41.3385 9.93266H36.3753V13.0777H34.554V3.4361H41.0224ZM36.3753 5.25739V8.11137H41.3385C42.3462 8.11137 42.9376 7.73897 42.9376 6.64995C42.9376 5.76747 42.0426 5.24174 41.0193 5.25739H36.3753Z" fill="black"/>
<path d="M55.7649 3.4361C58.0399 3.4361 59.5702 4.39994 59.5702 6.45593C59.542 8.46811 58.4937 9.56026 56.0684 9.56026L59.9301 13.0777H57.2263L53.3647 9.56026H51.3368V13.0777H49.5155V3.4361H55.7649ZM51.3368 7.73897H56.0809C57.0886 7.73897 57.6957 7.53243 57.6957 6.44342C57.6957 5.56093 56.7851 5.24487 55.7649 5.25739H51.3368V7.73897Z" fill="black"/>
<path d="M66.436 3.4361V13.0745H64.6147V3.4361H66.436Z" fill="black"/>
<path d="M72.2285 3.4361L76.8631 9.62911L81.4976 3.4361H82.6023V13.0745H80.781V7.43542L77.4013 11.9448H76.3123L72.9482 7.43542V13.0745H71.1269V3.4361H72.2316H72.2285Z" fill="black"/>
<path d="M96.2651 3.4361V5.25739H89.1083V7.33841H95.6737V9.1597H89.1083V11.2564H96.2651V13.0777H87.287V3.4361H96.2651Z" fill="black"/>
<path d="M102.774 3.4361V11.2564L110.551 11.2439V13.0652L100.953 13.0777V3.4361H102.774Z" fill="black"/>
<path d="M121.945 3.4361L127.584 13.0745H125.459L124.301 11.0874H118.509L117.351 13.0745H115.242L120.868 3.4361H121.945ZM119.573 9.26923H123.24L121.406 6.12422L119.573 9.26923Z" fill="black"/>
<path d="M133.361 3.4361L140.959 10.0265V3.4361H142.78V13.0745H141.691L134.093 6.4841V13.0745H132.272V3.4361H133.361Z" fill="black"/>
<path d="M156.446 3.4361V5.25739H149.289V7.33841H155.854V9.1597H149.289V11.2564H156.446V13.0777H147.468V3.4361H156.446Z" fill="black"/>
</g>
<defs>
<clipPath id="clip0_14952_141">
<rect width="21.5541" height="21.5503" fill="white"/>
</clipPath>
<clipPath id="clip1_14952_141">
<rect width="121.892" height="9.63844" fill="white" transform="translate(34.554 3.4361)"/>
</clipPath>
</defs>
</svg>
